<svg id="svg4161" xmlns="http://www.w3.org/2000/svg" viewBox="0 0 305 67.78"><defs><style>.cls-1{fill:#fff;}.cls-2{fill:#0099c2;}.cls-3{fill:#007ba5;}.cls-4{fill:#009dda;}</style></defs><title>traveloka</title><g id="layer1"><g id="g3"><path id="path5" class="cls-1" d="M9,183.71c-2.65-1.84-4.77-5.14-4.77-11V157.23H0v-5.94H4.33V142.1h6.61v9.19h8.19v5.94H10.94v15c0,2.72.66,4.45,1.6,5.54a6,6,0,0,0,4.61,1.87,5.82,5.82,0,0,0,.62,0h0a3.41,3.41,0,0,0,.61-.08l1.39-.31v6.3l-1,.16c-.25,0-.58.08-1,.11s-.7,0-1.08,0A13.61,13.61,0,0,1,9,183.71Zm20.59,1.91H24.08V151h6.61v4.68a13.58,13.58,0,0,1,2.17-2.36,10.56,10.56,0,0,1,7-2.64,9.61,9.61,0,0,1,1,.06,5.76,5.76,0,0,1,1,.17l.87.21v6.77l-1.5-.49-.38,0c-.26,0-.58,0-.87,0a7.62,7.62,0,0,0-6.39,3.48h0a18,18,0,0,0-2.8,10v14.82Zm17.77-2.22A9.69,9.69,0,0,1,44,175.81c0-5.92,3.73-9,8.31-10.67,4.33-1.55,9.41-1.71,12.59-1.71h.79c0-2.47-.66-4.14-1.69-5.22a6.94,6.94,0,0,0-5.17-1.75,14,14,0,0,0-4.44.74,15.1,15.1,0,0,0-4.13,2.12l-1,.73L48.59,159l-2-3.35-.5-.82.74-.63a16.34,16.34,0,0,1,5.5-2.87,22.71,22.71,0,0,1,6.73-1.06c4.23,0,7.55,1.2,9.83,3.53s3.45,5.67,3.45,10v21.82H65.86V182a13.62,13.62,0,0,1-2.62,2.27,12.84,12.84,0,0,1-7.15,2.15,13.47,13.47,0,0,1-8.7-3Zm8.29-13.27c-2.76.81-5,2.35-5,5.29a4.74,4.74,0,0,0,1.7,3.6,6.75,6.75,0,0,0,4.45,1.43,7.76,7.76,0,0,0,6.06-3,12.78,12.78,0,0,0,2.74-7.93v-.33h-.73a34.2,34.2,0,0,0-9.25.95Zm38.76,15.49H88.88l-.28-.73L76.07,152.58l-.6-1.55h7.16l.28.74,9,23.7h0l.12.36c0-.12.09-.24.13-.36h0l9-23.7.28-.74h7.09l-.59,1.55-12.4,32.3-.28.74Zm20.14-4.36a17.83,17.83,0,0,1-5.14-12.9,18.36,18.36,0,0,1,4.77-12.94,16.89,16.89,0,0,1,12.44-5.16,13.85,13.85,0,0,1,10.64,4.41,17.13,17.13,0,0,1,4.07,11.63c0,.36,0,.75-.05,1.16s-.06.72-.09,1.13l-.1,1H116.37a11.66,11.66,0,0,0,3.18,7.26,11.33,11.33,0,0,0,8.2,3.24,13.51,13.51,0,0,0,4.83-.94,14.34,14.34,0,0,0,4.29-2.62l1-.93.71,1.19,2,3.34.48.8-.69.63a18.4,18.4,0,0,1-5.89,3.49,19.79,19.79,0,0,1-6.89,1.3,18.28,18.28,0,0,1-13-5.13Zm5.28-22.67a10.49,10.49,0,0,0-3.1,5.29h17.77a9.36,9.36,0,0,0-2.26-5.37,7.62,7.62,0,0,0-5.74-2.37,9.86,9.86,0,0,0-6.67,2.45Zm30.71,25.77c-1.81-1.28-3.23-3.55-3.23-7.52V138.18H154v37.69c0,1.77.36,2.72.86,3.22a2.38,2.38,0,0,0,1.68.52H157a3.56,3.56,0,0,0,.43-.05l1.32-.21v6.22l-1,.16c-.2,0-.45.07-.76.1s-.68,0-1,0a9.36,9.36,0,0,1-5.4-1.52Zm15.72-3.25a18.13,18.13,0,0,1-5.27-13,17.57,17.57,0,0,1,5.28-12.71,18.86,18.86,0,0,1,26,0,17.58,17.58,0,0,1,5.3,12.71,18.08,18.08,0,0,1-5.29,12.94,18.64,18.64,0,0,1-26,0Zm4.84-21.27a11.75,11.75,0,0,0-3.3,8.32,12.14,12.14,0,0,0,3.28,8.53,11.21,11.21,0,0,0,8.16,3.44,11.34,11.34,0,0,0,8.21-3.45,12.11,12.11,0,0,0,3.31-8.52,11.73,11.73,0,0,0-3.33-8.31,11.54,11.54,0,0,0-16.33,0ZM209,185.62h-5.53V138.18h6.67v25.18h3.53l9.35-11.89.34-.44h8.22l-1.49,1.86-10.81,13.46,12,17.48,1.24,1.79h-8.07l-.34-.51L213.73,169.5h-3.55v16.12Zm26.68-2.22a13.47,13.47,0,0,0,8.7,3,12.81,12.81,0,0,0,7.15-2.15,13.62,13.62,0,0,0,2.62-2.27v3.65h6.48V163.8c0-4.34-1.19-7.7-3.45-10s-5.6-3.53-9.83-3.53a22.71,22.71,0,0,0-6.73,1.06,16.34,16.34,0,0,0-5.5,2.87l-.74.63.5.83,2,3.34.64,1.06,1-.73a14.82,14.82,0,0,1,4.13-2.12,13.86,13.86,0,0,1,4.43-.74,6.94,6.94,0,0,1,5.17,1.75c1,1.08,1.65,2.75,1.69,5.22h-.79c-3.18,0-8.25.16-12.59,1.71-4.58,1.63-8.31,4.75-8.31,10.67a9.69,9.69,0,0,0,3.42,7.59ZM244,170.13a34.24,34.24,0,0,1,9.25-.95H254v.33a12.79,12.79,0,0,1-2.75,7.93,7.74,7.74,0,0,1-6.06,3,6.72,6.72,0,0,1-4.44-1.43,4.72,4.72,0,0,1-1.71-3.6c0-2.94,2.22-4.48,5-5.29Z" transform="translate(0 -118.61)"/><g id="g7"><path id="path9" class="cls-2" d="M286,154.41l.12-.07c-1.75-5.21,5.5-14,18.93-28.71q-16.29,2-25.2,8.27.87,12.79,6.15,20.51Z" transform="translate(0 -118.61)"/><path id="path11" class="cls-3" d="M286,154.41l.12-.07a5.44,5.44,0,0,1-.15-.54,76.57,76.57,0,0,1-2.06-22.34,34.62,34.62,0,0,0-4.06,2.44q.87,12.79,6.15,20.51Z" transform="translate(0 -118.61)"/><path id="path13" class="cls-4" d="M290.42,161.87c2.87,1.46,5.25,2.22,7.35,1.86q-21.22-8.32-17.62-45.12a19,19,0,0,0-12.09,7.2c-2.5,3.38-1.7,7.67.36,13.39.27.77.6,4.91-1.11,6.45-.63.57-1.64.12-2.52-.45q-4.52-2.56-7.5.05a102.62,102.62,0,0,0-11.94-1.51c3.52,1.1,7.58,2.24,12.14,3.57a8.91,8.91,0,0,1,4.93,3.93c2.7,4.14,10.33,6.39,17.73,7.45A33.44,33.44,0,0,1,290.42,161.87Z" transform="translate(0 -118.61)"/></g></g></g></svg>